# Blender v2.77 (sub 0) OBJ File: ''
# www.blender.org
mtllib box.mtl
o Null_Boole_1_Boole_Cube_2
v 180.074539 -91.616882 299.578461
v 180.074539 91.616791 299.578461
v -180.074539 91.616791 299.578461
v -180.074539 -91.616882 299.578461
v 180.074539 -91.616791 -299.578461
v 180.074539 91.616882 -299.578461
v -180.074539 -91.616791 -299.578461
v -180.074539 91.616882 -299.578461
vt 1.0000 0.0000
vt 1.0000 1.0000
vt 0.0000 1.0000
vt 0.0000 0.0000
vt 1.0000 0.0000
vt 1.0000 1.0000
vt 0.0000 1.0000
vt 0.0000 0.0000
vt 1.0000 0.0000
vt 1.0000 1.0000
vt 0.0000 1.0000
vt 0.0000 0.0000
vt 1.0000 0.0000
vt 1.0000 1.0000
vt 0.0000 1.0000
vt 0.0000 0.0000
vt 1.0000 0.0000
vt 0.0000 0.0000
vt 1.0000 1.0000
vt 0.0000 1.0000
vn 0.0000 0.0000 1.0000
vn 1.0000 0.0000 0.0000
vn 0.0000 0.0000 -1.0000
vn -1.0000 0.0000 0.0000
vn 0.0000 1.0000 0.0000
vn 0.0000 -1.0000 -0.0000
usemtl Mat
s off
f 1/1/1 2/2/1 3/3/1 4/4/1
f 5/5/2 6/6/2 2/7/2 1/8/2
f 7/9/3 8/10/3 6/11/3 5/12/3
f 4/13/4 3/14/4 8/15/4 7/16/4
f 2/17/5 6/6/5 8/15/5 3/18/5
f 5/5/6 1/19/6 4/20/6 7/16/6
o Null_Boole_1_Boole_Cube_11
v 187.091095 -100.000046 302.717255
v 187.091095 99.999954 302.717316
v -187.091095 99.999954 302.717316
v -187.091095 -100.000046 302.717255
v 187.091095 -99.999954 -302.717316
v 187.091095 100.000046 -302.717255
v -187.091095 -99.999954 -302.717316
v -187.091095 100.000046 -302.717255
vt 1.0000 0.0000
vt 0.0000 0.0000
vt 0.0000 1.0000
vt 1.0000 1.0000
vt 1.0000 0.0000
vt 0.0000 0.0000
vt 0.0000 1.0000
vt 1.0000 1.0000
vt 1.0000 0.0000
vt 0.0000 0.0000
vt 0.0000 1.0000
vt 1.0000 1.0000
vt 1.0000 0.0000
vt 0.0000 0.0000
vt 0.0000 1.0000
vt 1.0000 1.0000
vt 1.0000 0.0000
vt 0.0000 0.0000
vt 0.0000 1.0000
vt 1.0000 1.0000
vn 0.0000 0.0000 -1.0000
vn -1.0000 0.0000 0.0000
vn 0.0000 -0.0000 1.0000
vn 1.0000 0.0000 0.0000
vn 0.0000 -1.0000 -0.0000
vn 0.0000 1.0000 0.0000
usemtl Mat
s off
f 9/21/7 12/22/7 11/23/7 10/24/7
f 13/25/8 9/26/8 10/27/8 14/28/8
f 15/29/9 13/30/9 14/31/9 16/32/9
f 12/33/10 15/34/10 16/35/10 11/36/10
f 10/37/11 11/38/11 16/35/11 14/28/11
f 13/25/12 15/34/12 12/39/12 9/40/12
